<?xml version="1.0" encoding="iso-8859-1"?>
<!-- Generator: Adobe Illustrator 16.0.0, SVG Export Plug-In . SVG Version: 6.00 Build 0)  -->
<!DOCTYPE svg PUBLIC "-//W3C//DTD SVG 1.1//EN" "http://www.w3.org/Graphics/SVG/1.1/DTD/svg11.dtd">
<svg version="1.1" id="Capa_1" xmlns="http://www.w3.org/2000/svg" xmlns:xlink="http://www.w3.org/1999/xlink" x="0px" y="0px"
	 width="516.301px" height="516.301px" viewBox="0 0 516.301 516.301" fill="#ffffff"
	 xml:space="preserve">
<g>
	<g>
		<path d="M267.8,392.001c-11.5,0-19.1,7.6-19.1,19.1s7.6,19.1,19.1,19.1s19.101-7.6,19.101-19.1S279.3,392.001,267.8,392.001z"/>
		<path d="M191.3,449.399c-11.5,0-19.1,7.602-19.1,19.102s7.6,19.1,19.1,19.1s19.1-7.6,19.1-19.1S202.8,449.399,191.3,449.399z"/>
		<path d="M133.9,392.001c-11.5,0-19.1,7.6-19.1,19.1s7.6,19.1,19.1,19.1s19.1-7.6,19.1-19.1S145.4,392.001,133.9,392.001z"/>
		<path d="M459.101,170.2c0-57.4-47.801-103.3-105.2-103.3c-21,0-38.2,5.7-55.5,15.3c-24.9-32.5-63.1-53.5-107.1-53.5
			C116.7,28.7,57.4,88,57.4,162.6c0,1.9,0,5.7,0,7.6C23,185.5,0,218,0,258.201C0,311.7,42.1,353.8,95.6,353.8h325.1
			c53.5,0,95.6-42.1,95.6-95.599C516.5,218,493.5,185.5,459.101,170.2z M420.8,334.7H95.7c-42.1,0-76.5-34.4-76.5-76.5
			c0-36.301,24.9-66.9,59.3-74.601c-1.9-7.7-1.9-13.4-1.9-21c0-63.1,51.6-114.8,114.8-114.8c45.9,0,84.1,26.8,103.3,63.1
			C310,95.6,331,86,354,86c47.8,0,86.101,38.2,86.101,86.1c0,3.8,0,7.7,0,11.5c32.5,7.6,57.399,38.2,57.399,74.601
			C497.3,300.3,462.9,334.7,420.8,334.7z"/>
		<path d="M382.601,392.001c-11.5,0-19.101,7.6-19.101,19.1s7.601,19.1,19.101,19.1s19.1-7.6,19.1-19.1
			S394.101,392.001,382.601,392.001z"/>
		<path d="M325.2,449.399c-11.5,0-19.1,7.602-19.1,19.102s7.6,19.1,19.1,19.1s19.1-7.6,19.1-19.1S336.7,449.399,325.2,449.399z"/>
	</g>
</g>
<g>
</g>
<g>
</g>
<g>
</g>
<g>
</g>
<g>
</g>
<g>
</g>
<g>
</g>
<g>
</g>
<g>
</g>
<g>
</g>
<g>
</g>
<g>
</g>
<g>
</g>
<g>
</g>
<g>
</g>
</svg>
